<?xml version="1.0" encoding="UTF-8" standalone="no"?>
<svg
   xmlns:dc="http://purl.org/dc/elements/1.1/"
   xmlns:cc="http://creativecommons.org/ns#"
   xmlns:rdf="http://www.w3.org/1999/02/22-rdf-syntax-ns#"
   xmlns:svg="http://www.w3.org/2000/svg"
   xmlns="http://www.w3.org/2000/svg"
   xmlns:sodipodi="http://sodipodi.sourceforge.net/DTD/sodipodi-0.dtd"
   xmlns:inkscape="http://www.inkscape.org/namespaces/inkscape"
   width="120"
   height="82"
   viewBox="0 0 31.750003 21.695834"
   version="1.1"
   id="svg984"
   inkscape:version="1.0.1 (1.0.1+r73)"
   sodipodi:docname="logo.svg">
  <defs
     id="defs978" />
  <sodipodi:namedview
     id="base"
     pagecolor="#ffffff"
     bordercolor="#666666"
     borderopacity="1.0"
     inkscape:pageopacity="0.0"
     inkscape:pageshadow="2"
     inkscape:zoom="0.38021248"
     inkscape:cx="-106.2919"
     inkscape:cy="-25.161206"
     inkscape:document-units="mm"
     inkscape:current-layer="layer1"
     inkscape:document-rotation="0"
     showgrid="false"
     fit-margin-top="0"
     fit-margin-left="0"
     fit-margin-right="0"
     fit-margin-bottom="0"
     inkscape:window-width="1920"
     inkscape:window-height="1031"
     inkscape:window-x="0"
     inkscape:window-y="0"
     inkscape:window-maximized="1"
     units="px" />
  <metadata
     id="metadata981">
    <rdf:RDF>
      <cc:Work
         rdf:about="">
        <dc:format>image/svg+xml</dc:format>
        <dc:type
           rdf:resource="http://purl.org/dc/dcmitype/StillImage" />
        <dc:title></dc:title>
      </cc:Work>
    </rdf:RDF>
  </metadata>
  <g
     inkscape:label="Layer 1"
     inkscape:groupmode="layer"
     id="layer1"
     transform="translate(-133.9564,-154.8239)">
    <g
       id="g974"
       transform="matrix(1.6272445,0,0,1.6272445,16.239106,-16.265815)">
      <path
         id="path1520-6"
         style="display:inline;fill:#000000;fill-opacity:1;stroke:none;stroke-width:0.0409162"
         d="m 73.50449,108.63859 c -0.225794,-0.0892 0.186184,-0.14877 0,0 z" />
      <path
         id="path1518-7"
         style="display:inline;fill:#000000;fill-opacity:1;stroke:none;stroke-width:0.0409162"
         d="m 73.385955,108.11124 c 0.516107,0.24805 -0.330459,0.30996 0,0 z" />
      <path
         id="path1516-5"
         style="display:inline;fill:#000000;fill-opacity:1;stroke:none;stroke-width:0.0409162"
         d="m 73.276457,108.01571 c -0.630726,1.08349 0.845984,2.33364 0.536088,0.53355 0.05199,-0.25032 -0.179712,-1.0769 -0.536088,-0.53355 z" />
      <path
         id="path1514-3"
         style="display:inline;fill:#000000;fill-opacity:1;stroke:none;stroke-width:0.0409162"
         d="m 73.238453,107.87499 c 0.03768,1.50509 2.44964,-0.0977 3.395518,0.56476 2.238154,-0.58915 -1.471774,-0.70968 -2.230862,-0.48283 -0.331687,0.35009 -1.315789,-0.77068 -1.164656,-0.0819 z" />
      <path
         id="path1512-5"
         style="display:inline;fill:#000000;fill-opacity:1;stroke:none;stroke-width:0.0409162"
         d="m 77.559778,108.25052 c -0.0081,0.003 -0.0081,0.003 0,0 z" />
      <path
         id="path1510-6"
         style="display:inline;fill:#000000;fill-opacity:1;stroke:none;stroke-width:0.0409162"
         d="m 77.875327,108.2686 c -0.160856,0.48716 -0.386176,-0.39167 0,0 z" />
      <path
         id="path1508-2"
         style="display:inline;fill:#000000;fill-opacity:1;stroke:none;stroke-width:0.0409162"
         d="m 77.527321,108.18869 c -0.706906,0.86728 0.811703,2.32317 0.475848,0.64513 0.07591,-0.33593 -0.361252,-1.7413 -0.475848,-0.64513 z" />
      <path
         id="path1506-9"
         style="display:inline;fill:#000000;fill-opacity:1;stroke:none;stroke-width:0.0409162"
         d="m 75.663407,108.52108 c 0.121316,-0.0532 -0.112055,-0.0761 0,0 z" />
      <path
         id="path1504-1"
         style="display:inline;fill:#000000;fill-opacity:1;stroke:none;stroke-width:0.0409162"
         d="m 75.562541,107.33942 c -0.172906,-0.003 0.187582,-0.24698 0,0 z" />
      <path
         id="path1502-2"
         style="display:inline;fill:#000000;fill-opacity:1;stroke:none;stroke-width:0.0409162"
         d="m 75.342726,105.9441 c -0.301571,0.85518 0.679778,2.85341 0.610599,0.84738 -0.0358,-0.17767 -0.348333,-1.57232 -0.610599,-0.84738 z" />
      <path
         id="path1500-7"
         style="display:inline;fill:#000000;fill-opacity:1;stroke:none;stroke-width:0.0409162"
         d="m 75.610406,106.18405 c 0.08234,0.56317 -0.440297,-0.35461 0,0 z" />
      <path
         id="path1498-0"
         style="display:inline;fill:#000000;fill-opacity:1;stroke:none;stroke-width:0.0409162"
         d="m 75.310265,106.11297 c 1.387283,0.76769 3.83765,0.28687 4.86825,-0.0354 -1.350772,-0.51621 -3.698945,-0.34091 -4.86825,0.0354 z" />
      <path
         id="path1496-9"
         style="display:inline;fill:#000000;fill-opacity:1;stroke:none;stroke-width:0.0409162"
         d="m 80.212151,105.99751 c 8.57e-4,-3.6e-4 -8.56e-4,-0.001 0,0 z" />
      <path
         id="path1494-3"
         style="display:inline;fill:#000000;fill-opacity:1;stroke:none;stroke-width:0.0409162"
         d="m 80.212151,105.99505 c 0.01698,-0.005 -0.01075,-0.0148 0,0 z" />
      <path
         id="path1492-6"
         style="display:inline;fill:#000000;fill-opacity:1;stroke:none;stroke-width:0.0409162"
         d="m 80.385746,105.80256 c 0.896286,0.34637 -0.808638,0.41693 0,0 z" />
      <path
         id="path1490-0"
         style="display:inline;fill:#000000;fill-opacity:1;stroke:none;stroke-width:0.0409162"
         d="m 80.160588,105.80133 c -0.02128,0.75432 0.201905,3.83841 0.596008,1.78399 0.215861,-0.19705 -0.491592,-3.15941 -0.596008,-1.78399 z" />
      <path
         id="path1488-6"
         style="display:inline;fill:#000000;fill-opacity:1;stroke:none;stroke-width:0.0409162"
         d="m 81.747984,107.08591 c -1.305021,-0.51714 -1.562334,1.07984 -0.09398,0.5723 0.648903,0.16297 1.022932,-0.95637 0.09398,-0.5723 z" />
      <path
         id="path1486-2"
         style="display:inline;fill:#000000;fill-opacity:1;stroke:none;stroke-width:0.0409162"
         d="m 82.726678,106.84884 c -0.419483,0.0678 0.182794,-0.40226 0,0 z" />
      <path
         id="path1484-6"
         style="display:inline;fill:#000000;fill-opacity:1;stroke:none;stroke-width:0.0409162"
         d="m 82.821384,105.80769 c -0.05153,0.59904 -0.581767,-0.32073 0,0 z" />
      <path
         id="path1482-1"
         style="display:inline;fill:#000000;fill-opacity:1;stroke:none;stroke-width:0.0409162"
         d="m 82.396547,105.47818 c 0.254493,1.78957 0.02422,5.00252 0.531622,5.906 0.563649,-1.73337 0.119936,-3.67979 -0.07393,-5.43939 -0.07822,-0.1065 -0.216189,-0.70698 -0.457689,-0.46661 z" />
      <path
         id="path1480-8"
         style="display:inline;fill:#000000;fill-opacity:1;stroke:none;stroke-width:0.0409162"
         d="m 82.493922,105.92088 c 0.04012,0.42513 -0.460455,-0.10659 0,0 z" />
      <path
         id="path1478-7"
         style="display:inline;fill:#000000;fill-opacity:1;stroke:none;stroke-width:0.0409162"
         d="m 90.675171,105.15441 c -2.771734,0.046 -5.538047,0.62232 -8.294794,0.52494 0.29947,1.34223 3.049398,-0.047 4.351217,0.2616 1.623452,-0.0833 3.25647,-0.14759 4.855199,-0.46455 -0.184734,-0.32163 -0.612676,-0.22617 -0.911622,-0.32199 z" />
      <path
         id="path1476-9"
         style="display:inline;fill:#000000;fill-opacity:1;stroke:none;stroke-width:0.0409162"
         d="m 82.297523,105.16387 c 0.0016,-0.003 0.0016,-0.003 0,0 z" />
      <path
         id="path1474-2"
         style="display:inline;fill:#000000;fill-opacity:1;stroke:none;stroke-width:0.0409162"
         d="m 90.709068,105.61787 c 0.295632,0.34166 -0.604335,-0.22863 0,0 z" />
      <path
         id="path1472-0"
         style="display:inline;fill:#000000;fill-opacity:1;stroke:none;stroke-width:0.0409162"
         d="m 90.513698,105.42127 c 0.05602,2.19075 -0.106376,4.42592 0.135218,6.5851 1.02808,1.44124 0.212332,-2.09885 0.364098,-2.75099 -0.06479,-0.40354 0.117693,-5.3255 -0.499316,-3.83411 z" />
      <path
         id="path1470-2"
         style="display:inline;fill:#000000;fill-opacity:1;stroke:none;stroke-width:0.0409162"
         d="m 82.346211,109.64173 c 0.489408,1.49222 3.313925,-0.31534 0.837623,-0.26167 -0.253495,-0.0533 -0.823689,-0.15367 -0.837623,0.26167 z" />
      <path
         id="path1468-3"
         style="display:inline;fill:#000000;fill-opacity:1;stroke:none;stroke-width:0.0409162"
         d="m 84.465277,110.04993 c -0.237196,0.32481 -0.279719,-0.33523 0,0 z" />
      <path
         id="path1466-7"
         style="display:inline;fill:#000000;fill-opacity:1;stroke:none;stroke-width:0.0409162"
         d="m 84.218961,109.68282 c -0.03657,1.47191 -0.07001,4.31134 0.468513,4.89965 0.205478,-1.63306 0.0559,-3.55573 -0.388359,-5.02043 l -0.08015,0.12078 z" />
      <path
         id="path1464-5"
         style="display:inline;fill:#000000;fill-opacity:1;stroke:none;stroke-width:0.0409162"
         d="m 81.232136,110.74677 c -2.073757,0.71111 2.314217,1.32831 0.727912,0.0296 -0.193782,-0.10507 -0.559468,-0.30988 -0.727912,-0.0296 z" />
      <path
         id="path1462-9"
         style="display:inline;fill:#000000;fill-opacity:1;stroke:none;stroke-width:0.0409162"
         d="m 80.713003,111.4471 c -0.0053,0.006 -0.0053,0.006 0,0 z" />
      <path
         id="path1460-2"
         style="display:inline;fill:#000000;fill-opacity:1;stroke:none;stroke-width:0.0409162"
         d="m 80.47778,111.40149 c 0.810679,-0.19306 -0.08735,0.25624 0,0 z" />
      <path
         id="path1458-2"
         style="display:inline;fill:#000000;fill-opacity:1;stroke:none;stroke-width:0.0409162"
         d="m 80.566529,110.85524 c -0.441974,1.2721 0.08502,4.17481 0.68052,4.34075 0.08363,-1.48003 -0.406552,-2.90526 -0.68052,-4.34075 z" />
      <path
         id="path1456-8"
         style="display:inline;fill:#000000;fill-opacity:1;stroke:none;stroke-width:0.0409162"
         d="m 73.413894,112.12606 c -0.191017,0.3425 -0.266183,-0.45978 0,0 z" />
      <path
         id="path1454-9"
         style="display:inline;fill:#000000;fill-opacity:1;stroke:none;stroke-width:0.0409162"
         d="m 73.277071,110.94131 c -2.346944,-0.23239 0.459813,3.34694 0.472589,0.71955 -0.04973,-0.1566 -0.214791,-1.20724 -0.472589,-0.71955 z" />
      <path
         id="path1452-7"
         style="display:inline;fill:#000000;fill-opacity:1;stroke:none;stroke-width:0.0409162"
         d="m 77.812055,112.05724 c -0.0075,-0.0138 -0.0075,-0.0138 0,0 z" />
      <path
         id="path1450-3"
         style="display:inline;fill:#000000;fill-opacity:1;stroke:none;stroke-width:0.0409162"
         d="m 78.01482,111.83064 c -0.06649,0.34895 -0.347773,-0.22876 0,0 z" />
      <path
         id="path1448-6"
         style="display:inline;fill:#000000;fill-opacity:1;stroke:none;stroke-width:0.0409162"
         d="m 77.398926,110.589 c -1.578996,0.94683 0.913565,3.24925 0.810139,0.951 -0.142123,-0.42496 -0.59464,-0.58073 -0.810139,-0.951 z" />
      <path
         id="path1446-1"
         style="display:inline;fill:#000000;fill-opacity:1;stroke:none;stroke-width:0.0409162"
         d="m 81.147086,117.98795 c -0.221501,0.28256 -0.297174,-0.32448 0,0 z" />
      <path
         id="path1444-2"
         style="display:inline;fill:#000000;fill-opacity:1;stroke:none;stroke-width:0.0409162"
         d="m 80.627338,116.81019 c -2.103776,0.52582 1.457568,2.99371 0.66567,0.51207 -0.11768,-0.27568 -0.403477,-0.41403 -0.66567,-0.51207 z" />
      <path
         id="path1442-9"
         style="display:inline;fill:#000000;fill-opacity:1;stroke:none;stroke-width:0.0409162"
         d="m 80.902417,116.86237 c 0.382932,-0.0147 -0.230714,-0.32895 0,0 z" />
      <path
         id="path1440-3"
         style="display:inline;fill:#000000;fill-opacity:1;stroke:none;stroke-width:0.0409162"
         d="m 82.550414,112.90158 c -0.05436,0.0918 -0.04189,-0.1387 0,0 z" />
      <path
         id="path1438-1"
         style="display:inline;fill:#000000;fill-opacity:1;stroke:none;stroke-width:0.0409162"
         d="m 82.506863,112.86624 c 3.58e-4,10e-4 -8.56e-4,-2.3e-4 0,0 z" />
      <path
         id="path1436-9"
         style="display:inline;fill:#000000;fill-opacity:1;stroke:none;stroke-width:0.0409162"
         d="m 82.683333,112.37402 c -1.947435,0.16691 1.006866,2.72189 0.36047,0.59793 -0.03921,-0.22605 -0.09297,-0.52667 -0.36047,-0.59793 z" />
      <path
         id="path1434-4"
         style="display:inline;fill:#000000;fill-opacity:1;stroke:none;stroke-width:0.0409162"
         d="m 84.797053,116.49731 c -0.162163,0.19189 -0.0444,-0.20272 0,0 z" />
      <path
         id="path1432-7"
         style="display:inline;fill:#000000;fill-opacity:1;stroke:none;stroke-width:0.0409162"
         d="m 84.149523,115.4272 c -2.164281,1.07968 2.075624,2.61315 0.80245,0.33707 l -0.383162,-0.1943 z" />
      <path
         id="path1430-8"
         style="display:inline;fill:#000000;fill-opacity:1;stroke:none;stroke-width:0.0409162"
         d="m 82.527408,112.9932 c -0.09128,0.0278 0.04137,-0.0879 0,0 z" />
      <path
         id="path1428-4"
         style="display:inline;fill:#000000;fill-opacity:1;stroke:none;stroke-width:0.0409162"
         d="m 82.639368,112.92644 c -0.259587,-0.12326 0.341876,-0.1399 0,0 z" />
      <path
         id="path1426-5"
         style="display:inline;fill:#000000;fill-opacity:1;stroke:none;stroke-width:0.0409162"
         d="m 82.719899,112.7249 c -0.0084,0.004 -0.0084,0.004 0,0 z" />
      <path
         id="path1424-0"
         style="display:inline;fill:#000000;fill-opacity:1;stroke:none;stroke-width:0.0409162"
         d="m 82.68518,112.67827 c 0.03672,0.41674 -0.362086,-0.0849 0,0 z" />
      <path
         id="path1422-3"
         style="display:inline;fill:#000000;fill-opacity:1;stroke:none;stroke-width:0.0409162"
         d="m 82.085311,112.22631 c -1.445954,1.27949 2.047106,1.98535 0.672544,0.13396 -0.09254,-0.20831 -0.612143,-0.6234 -0.672544,-0.13396 z" />
      <path
         id="path1420-6"
         style="display:inline;fill:#000000;fill-opacity:1;stroke:none;stroke-width:0.0409162"
         d="m 90.541842,114.64839 c -0.07483,0.0912 -0.05274,-0.10793 0,0 z" />
      <path
         id="path1418-1"
         style="display:inline;fill:#000000;fill-opacity:1;stroke:none;stroke-width:0.0409162"
         d="m 90.385098,114.60094 c 0.0036,0.0181 0.0036,0.0181 0,0 z" />
      <path
         id="path1416-0"
         style="display:inline;fill:#000000;fill-opacity:1;stroke:none;stroke-width:0.0409162"
         d="m 90.822058,114.23506 c -2.380904,0.38509 1.561379,2.70014 0.562349,0.16262 -0.0837,-0.19479 -0.408843,-0.47487 -0.562349,-0.16262 z" />
    </g>
  </g>
</svg>
